<?xml version="1.0" standalone="no"?>
<!DOCTYPE svg PUBLIC "-//W3C//DTD SVG 20010904//EN"
 "http://www.w3.org/TR/2001/REC-SVG-20010904/DTD/svg10.dtd">
<svg version="1.0" xmlns="http://www.w3.org/2000/svg"
 width="298.000000pt" height="169.000000pt" viewBox="0 0 298.000000 169.000000"
 preserveAspectRatio="xMidYMid meet">

<g transform="translate(0.000000,169.000000) scale(0.100000,-0.100000)"
fill="#000000" stroke="none">
<path d="M474 1260 c-104 -22 -201 -97 -250 -192 -39 -75 -45 -208 -14 -290
28 -75 101 -155 177 -193 58 -30 60 -30 255 -33 171 -3 200 -1 222 13 15 10
29 28 32 41 l6 23 887 3 c873 3 887 3 921 24 124 73 116 246 -15 305 -38 18
-88 19 -916 19 l-876 0 -18 48 c-62 165 -243 267 -411 232z m219 -48 c59 -30
129 -98 156 -155 30 -63 41 -134 41 -279 0 -145 -13 -193 -53 -203 -14 -4
-105 -5 -203 -3 -172 3 -181 4 -236 31 -72 35 -140 110 -168 185 -18 46 -21
72 -18 137 8 142 78 241 212 297 62 27 205 21 269 -10z m2013 -278 c51 -38 69
-71 69 -129 0 -61 -21 -98 -76 -130 -33 -20 -55 -20 -911 -23 l-877 -2 -3 147
c-2 82 -2 151 0 156 2 4 401 6 887 5 875 -3 884 -3 911 -24z"/>
<path d="M460 1165 c-151 -47 -228 -233 -156 -379 47 -95 131 -146 241 -146
107 0 184 43 235 133 63 111 47 231 -44 322 -78 79 -171 102 -276 70z m186
-95 c18 -12 43 -35 55 -51 l20 -29 -42 0 c-26 0 -50 7 -62 18 -13 12 -36 17
-74 17 -49 0 -58 -3 -84 -32 -16 -18 -32 -45 -35 -60 -10 -37 15 -102 48 -126
38 -28 109 -27 149 2 21 16 41 21 67 19 l37 -3 -38 -42 c-46 -50 -91 -67 -163
-61 -95 8 -167 86 -167 181 0 120 90 203 206 192 27 -2 64 -14 83 -25z"/>
<path d="M974 877 c-23 -20 -27 -32 -27 -72 0 -65 32 -95 104 -95 51 0 95 27
86 53 -6 19 -37 20 -57 2 -10 -9 -29 -15 -42 -13 -19 2 -24 10 -26 41 -2 21 2
45 9 53 15 18 43 18 58 0 11 -14 61 -10 61 4 0 5 -12 18 -26 29 -38 30 -104
28 -140 -2z"/>
<path d="M1191 874 c-26 -22 -31 -33 -31 -70 0 -66 31 -94 105 -94 46 0 60 4
80 25 42 41 29 131 -22 154 -43 20 -99 13 -132 -15z m103 -30 c31 -30 12 -94
-27 -94 -31 0 -47 18 -47 51 0 29 23 59 45 59 7 0 21 -7 29 -16z"/>
<path d="M1419 871 c-31 -32 -38 -75 -17 -114 19 -36 40 -46 96 -47 68 0 102
29 102 89 0 53 -7 69 -41 86 -48 25 -106 19 -140 -14z m102 -21 c22 -12 27
-68 7 -88 -46 -46 -105 32 -61 80 19 21 27 22 54 8z"/>
<path d="M1630 805 l0 -95 80 0 c73 0 80 2 80 19 0 17 -8 20 -47 23 l-48 3 -3
73 -3 72 -29 0 -30 0 0 -95z"/>
<path d="M1832 884 c-24 -16 -30 -58 -10 -71 7 -4 33 -15 57 -23 50 -17 63
-35 31 -45 -14 -4 -28 -1 -39 9 -10 9 -30 16 -45 16 -25 0 -26 -2 -15 -22 17
-33 28 -38 87 -38 57 0 92 23 92 59 0 26 -41 57 -86 65 -19 4 -34 12 -32 18 7
19 25 20 42 2 17 -17 66 -13 66 6 0 18 -46 40 -85 40 -22 0 -51 -7 -63 -16z"/>
<path d="M2010 805 l0 -95 29 0 c27 0 30 3 33 38 3 35 5 37 41 40 l37 3 0 -40
c0 -39 2 -41 30 -41 l30 0 0 95 0 95 -30 0 c-28 0 -30 -3 -30 -36 0 -35 -1
-35 -37 -32 -35 3 -38 6 -41 36 -3 28 -7 32 -33 32 l-29 0 0 -95z"/>
<path d="M2285 888 c-33 -18 -45 -40 -45 -85 0 -64 32 -93 102 -93 56 1 77 11
96 47 36 67 -12 143 -90 143 -24 0 -52 -6 -63 -12z m87 -45 c33 -29 16 -93
-25 -93 -32 0 -47 18 -47 57 0 47 38 67 72 36z"/>
<path d="M2480 805 l0 -95 30 0 c28 0 30 3 30 35 0 33 2 35 33 35 45 0 77 25
77 60 0 42 -32 60 -107 60 l-63 0 0 -95z m105 35 c0 -8 -10 -16 -22 -18 -18
-3 -23 2 -23 18 0 16 5 21 23 18 12 -2 22 -10 22 -18z"/>
</g>
</svg>
